<svg xmlns="http://www.w3.org/2000/svg" viewBox="0 0 100 100" width="100" height="100">
  <!-- Building/Laboratory Icon -->
  <g fill="#0d6efd">
    <!-- Building Base -->
    <rect x="20" y="70" width="60" height="20" rx="2" />
    
    <!-- Building Pillars -->
    <rect x="25" y="30" width="10" height="40" rx="1" />
    <rect x="45" y="30" width="10" height="40" rx="1" />
    <rect x="65" y="30" width="10" height="40" rx="1" />
    
    <!-- Building Top -->
    <rect x="15" y="20" width="70" height="10" rx="2" />
    
    <!-- Test Tube / Lab Element -->
    <path d="M60,10 L60,35 L70,50 L70,55 C70,57.76 67.76,60 65,60 L55,60 C52.24,60 50,57.76 50,55 L50,50 L60,35 L60,10 Z" fill-opacity="0.7" />
    
    <!-- Cube Testing Icon -->
    <rect x="30" y="40" width="15" height="15" rx="2" transform="rotate(45, 37.5, 47.5)" fill-opacity="0.8" />
  </g>
  
  <!-- Text elements would be here, but simplified for SVG code -->
  <text x="50" y="95" text-anchor="middle" font-family="Arial" font-size="10" font-weight="bold" fill="#0d6efd">VITRAG</text>
</svg>
